<svg width="72" height="72" viewBox="0 0 72 72" fill="none" xmlns="http://www.w3.org/2000/svg">
<path d="M70.5979 35.5283C70.5979 16.1984 54.9279 0.52832 35.5979 0.52832C16.2679 0.52832 0.5979 16.1984 0.5979 35.5283C0.5979 54.8583 16.2679 70.5283 35.5979 70.5283C54.9279 70.5283 70.5979 54.8583 70.5979 35.5283Z" fill="#6F5745"/>
<path d="M30.1009 0.848075L30.0462 0.351073L30.1009 0.848075ZM28.1879 1.48866L28.2415 1.98578L28.1879 1.48866ZM25.2127 1.95436L25.4308 2.40428L25.2127 1.95436ZM23.363 2.73232L23.6912 3.10951L23.363 2.73232ZM22.4152 3.07039L22.4037 3.57026L22.4152 3.07039ZM21.4361 3.31967L21.6943 3.74785L21.4361 3.31967ZM20.6265 3.95423L20.9788 4.30904L20.6265 3.95423ZM19.8204 4.57469L19.5711 4.14127L19.8204 4.57469ZM18.8924 4.95075L18.7675 4.4666L18.8924 4.95075ZM17.9678 5.3373L18.2264 5.76521L17.9678 5.3373ZM16.2739 6.39929L16.1127 5.926L16.2739 6.39929ZM15.3986 6.88664L15.718 7.27134L15.3986 6.88664ZM10.1036 11.4605L10.571 11.6379L10.1036 11.4605ZM8.7367 12.9311L8.35291 12.6107L8.7367 12.9311ZM7.52989 14.5364L7.30469 14.09L7.52989 14.5364ZM6.91248 15.3183L7.40046 15.4272L6.91248 15.3183ZM6.39739 16.1855L6.07365 15.8045L6.39739 16.1855ZM5.73267 16.9479L6.15569 17.2144L5.73267 16.9479ZM4.51085 19.7048L4.9497 19.9444L4.51085 19.7048ZM3.4419 21.4119L3.86161 21.6836L3.4419 21.4119ZM3.05456 22.3346L2.56663 22.2254L3.05456 22.3346ZM2.36292 25.2686L1.91106 25.0545L2.36292 25.2686ZM2.00661 26.2L2.48605 26.3419L2.00661 26.2ZM1.60112 27.1275L1.16997 26.8743L1.60112 27.1275ZM0.608711 36.052L1.0824 36.212L0.608711 36.052ZM0.53479 37.0527L0.0439148 37.1478L0.53479 37.0527ZM0.632973 38.0522L1.13297 38.0503L0.632973 38.0522ZM0.584778 39.0647L1.08238 39.1136L0.584778 39.0647ZM1.15398 42.0247L0.672531 41.8898L1.15398 42.0247ZM1.198 43.0347L1.66045 42.8446L1.198 43.0347ZM1.44968 44.011L1.94647 43.9545L1.44968 44.011ZM1.66272 44.9935L1.18723 45.1481L1.66272 44.9935ZM3.61491 49.6099L3.94782 49.2369L3.61491 49.6099ZM4.84298 52.353L4.37167 52.5199L4.84298 52.353ZM5.72621 54.1605L6.16264 53.9165L5.72621 54.1605ZM6.4239 54.9003L6.14728 55.3168L6.4239 54.9003ZM7.05605 55.6844L7.5246 55.5099L7.05605 55.6844ZM8.82552 58.1007L8.52737 58.502L8.82552 58.1007ZM10.0515 59.6961L10.4042 59.3417L10.0515 59.6961ZM10.8854 60.2795L11.1014 59.8286L10.8854 60.2795ZM11.5853 61.0018L11.1294 61.2071L11.5853 61.0018ZM12.9552 62.4725L12.7152 62.9112L12.9552 62.4725ZM13.8755 62.9298L14.0802 62.4736L13.8755 62.9298ZM14.642 63.5798L15.0564 63.3001L14.642 63.5798ZM15.454 64.1552L15.3261 64.6386L15.454 64.1552ZM16.4017 64.5393L16.153 64.9731L16.4017 64.5393ZM17.2377 65.0786L16.945 65.4841L17.2377 65.0786ZM17.9842 65.7752L18.3659 65.4523L17.9842 65.7752ZM18.8429 66.2783L18.9363 65.7871L18.8429 66.2783ZM20.6075 67.2215L20.6129 67.7215L20.6075 67.2215ZM21.5984 67.4667L21.8488 67.0339L21.5984 67.4667ZM23.398 68.3299L23.4173 67.8303L23.398 68.3299ZM24.3462 68.6611L24.0497 69.0637L24.3462 68.6611ZM25.2777 69.0184L25.2324 69.5163L25.2777 69.0184ZM27.1855 69.6442L27.2586 69.1496L27.1855 69.6442ZM28.1889 69.7502L28.157 70.2491L28.1889 69.7502ZM29.1958 69.8061L29.2193 69.3066L29.1958 69.8061ZM30.1796 69.972L30.3212 69.4925L30.1796 69.972ZM33.1423 70.416L33.3262 69.9511L33.1423 70.416ZM35.1387 70.3801L35.1602 69.8806L35.1387 70.3801ZM37.1449 70.6078L37.1117 71.1067L37.1449 70.6078ZM38.1482 70.5913L38.198 71.0888L38.1482 70.5913ZM39.155 70.5524L39.144 71.0523L39.155 70.5524ZM40.1238 70.241L39.8378 69.8309L40.1238 70.241ZM42.0734 69.7671L42.1024 70.2663L42.0734 69.7671ZM44.0236 69.3744L44.2473 69.8216L44.0236 69.3744ZM44.9701 69.0521L45.0643 69.5431L44.9701 69.0521ZM45.9716 68.9207L46.0079 69.4194L45.9716 68.9207ZM46.9925 68.8209L47.0535 69.3172L46.9925 68.8209ZM50.6936 67.2652L50.9177 67.7121L50.6936 67.2652ZM51.5139 66.6698L51.8669 67.0239L51.5139 66.6698ZM53.2255 65.6406L53.5941 65.9785L53.2255 65.6406ZM54.0325 65.0455L54.2429 65.499L54.0325 65.0455ZM55.0103 64.7167L55.1202 65.2045L55.0103 64.7167ZM56.6313 63.5499L56.2172 63.2697L56.6313 63.5499ZM58.2142 62.3183L58.5034 62.7263L58.2142 62.3183ZM58.9688 61.6613L59.3331 62.0039L58.9688 61.6613ZM59.7703 61.0474L59.5321 60.6078L59.7703 61.0474ZM60.5711 60.4308L60.9369 60.7716L60.5711 60.4308ZM64.3855 55.7557L64.0477 55.3871L64.3855 55.7557ZM64.8754 54.8801L65.3648 54.9824L64.8754 54.8801ZM65.2511 53.9297L64.8276 53.6638L65.2511 53.9297ZM65.8668 53.1329L66.2319 53.4745L65.8668 53.1329ZM66.8124 51.3684L67.1143 51.767L66.8124 51.3684ZM67.3301 50.5137L66.8352 50.4426L67.3301 50.5137ZM68.6885 46.7479L69.177 46.8548L68.6885 46.7479ZM69.0821 45.822L68.6644 45.5473L69.0821 45.822ZM70.1095 40.937L70.5875 41.0834L70.1095 40.937ZM70.3074 39.9572L69.8099 39.907L70.3074 39.9572ZM70.4816 37.9668L70.9808 37.9386L70.4816 37.9668ZM70.5314 36.9675L71.0253 37.0455L70.5314 36.9675ZM70.2356 31.9905L70.7353 31.9728L70.2356 31.9905ZM69.7539 28.03L69.2599 27.9527L69.7539 28.03ZM69.5678 26.0112L70.0527 25.8892L69.5678 26.0112ZM68.1556 22.2441L67.7096 22.4702L68.1556 22.2441ZM67.1774 20.4871L67.5692 20.1765L67.1774 20.4871ZM66.7002 19.6061L66.2256 19.7634L66.7002 19.6061ZM65.2289 17.0012L65.6145 16.6829L65.2289 17.0012ZM64.6806 16.1647L64.2348 16.3912L64.6806 16.1647ZM64.055 15.3881L64.3734 15.0026L64.055 15.3881ZM61.6696 12.1806L61.1958 12.3404L61.6696 12.1806ZM61.1282 11.3208L61.4701 10.956L61.1282 11.3208ZM60.2836 10.7474L60.5 10.2967L60.2836 10.7474ZM59.462 10.1582L59.1006 10.5038L59.462 10.1582ZM58.228 8.53296L57.858 8.86921L58.228 8.53296ZM57.4523 7.8946L57.7109 7.4667L57.4523 7.8946ZM54.1547 5.58644L54.447 5.18083L54.1547 5.58644ZM53.239 5.16443L53.1174 5.64942L53.239 5.16443ZM51.4163 4.3141L51.7862 3.97773L51.4163 4.3141ZM50.6058 3.69608L50.8269 3.24766L50.6058 3.69608ZM49.6162 3.4571L49.6008 3.95686L49.6162 3.4571ZM48.6929 3.05807L48.3403 3.41263L48.6929 3.05807ZM46.8823 2.18271L47.0147 1.70054L46.8823 2.18271ZM45.8951 1.97555L45.8223 2.47022L45.8951 1.97555ZM43.9189 1.61029L44.1067 1.14693L43.9189 1.61029ZM42.982 1.22063L43.1781 0.760686L42.982 1.22063ZM40.9889 1.02197L41.0627 1.51649L40.9889 1.02197ZM39.0048 0.785963L39.1252 0.300667L39.0048 0.785963ZM35.0993 0.630157L35.1994 1.12004C34.7919 1.20327 34.3818 1.19251 33.9745 1.09016L34.0963 0.605233L34.2182 0.120308C34.4835 0.186973 34.742 0.192829 34.9993 0.140272L35.0993 0.630157ZM34.0963 0.605233L33.9745 1.09016C33.6847 1.01735 33.3992 0.989185 33.1163 1.00392L33.0903 0.504597L33.0642 0.00527388C33.4501 -0.0148241 33.8353 0.0240999 34.2182 0.120308L34.0963 0.605233ZM33.0903 0.504597L33.1163 1.00392C32.8417 1.01822 32.5704 1.08056 32.3002 1.19386L32.1069 0.732773L31.9135 0.271681C32.2857 0.115588 32.67 0.0258089 33.0642 0.00527388L33.0903 0.504597ZM32.1069 0.732773L32.3002 1.19386C31.8973 1.36286 31.4755 1.4189 31.0442 1.35927L31.1127 0.863982L31.1812 0.368693C31.4331 0.40352 31.6741 0.372085 31.9135 0.271681L32.1069 0.732773ZM31.1127 0.863982L31.0442 1.35927C30.7422 1.31752 30.4463 1.31309 30.1556 1.34508L30.1009 0.848075L30.0462 0.351073C30.4213 0.309812 30.7999 0.31599 31.1812 0.368693L31.1127 0.863982ZM30.1009 0.848075L30.1556 1.34508C29.8957 1.37367 29.6432 1.45709 29.395 1.60131L29.1438 1.16899L28.8926 0.736678C29.2547 0.526249 29.6403 0.395728 30.0462 0.351073L30.1009 0.848075ZM29.1438 1.16899L29.395 1.60131C29.0327 1.81181 28.6472 1.94206 28.2415 1.98578L28.1879 1.48866L28.1343 0.991536C28.3928 0.963681 28.6445 0.880817 28.8926 0.736678L29.1438 1.16899ZM28.1879 1.48866L28.2415 1.98578C27.8883 2.02385 27.5293 2.03978 27.1647 2.03382L27.1729 1.53389L27.1811 1.03395C27.5057 1.03926 27.8234 1.02505 28.1343 0.991536L28.1879 1.48866ZM27.1729 1.53389L27.1647 2.03382C26.8565 2.02878 26.5571 2.05718 26.2657 2.11845L26.1628 1.62916L26.0599 1.13986C26.4262 1.06284 26.8002 1.02773 27.1811 1.03395L27.1729 1.53389ZM26.1628 1.62916L26.2657 2.11845C25.977 2.17916 25.699 2.27426 25.4308 2.40428L25.2127 1.95436L24.9946 1.50445C25.3356 1.33915 25.6909 1.21745 26.0599 1.13986L26.1628 1.62916ZM25.2127 1.95436L25.4308 2.40428C25.0894 2.56979 24.7331 2.69127 24.3627 2.76828L24.2609 2.27875L24.1591 1.78922C24.4487 1.72902 24.7269 1.63424 24.9946 1.50445L25.2127 1.95436ZM24.2609 2.27875L24.3627 2.76828C24.1214 2.81846 23.8991 2.92866 23.6912 3.10951L23.363 2.73232L23.0348 2.35513C23.3642 2.06843 23.7405 1.87625 24.1591 1.78922L24.2609 2.27875ZM23.363 2.73232L23.6912 3.10951C23.3265 3.42689 22.8887 3.58147 22.4037 3.57026L22.4152 3.07039L22.4268 2.57052C22.6682 2.5761 22.8622 2.50529 23.0348 2.35513L23.363 2.73232ZM22.4152 3.07039L22.4037 3.57026C22.128 3.56389 21.8965 3.62596 21.6943 3.74785L21.4361 3.31967L21.1779 2.89149C21.5549 2.66422 21.9761 2.56011 22.4268 2.57052L22.4152 3.07039ZM21.4361 3.31967L21.6943 3.74785C21.4404 3.90095 21.2019 4.0875 20.9788 4.30904L20.6265 3.95423L20.2742 3.59941C20.5516 3.32404 20.8528 3.08755 21.1779 2.89149L21.4361 3.31967ZM20.6265 3.95423L20.9788 4.30904C20.6997 4.58609 20.3968 4.81995 20.0697 5.0081L19.8204 4.57469L19.5711 4.14127C19.8183 3.99906 20.0528 3.81928 20.2742 3.59941L20.6265 3.95423ZM19.8204 4.57469L20.0697 5.0081C19.7422 5.19645 19.3909 5.33851 19.0173 5.43489L18.8924 4.95075L18.7675 4.4666C19.0569 4.39193 19.3242 4.28328 19.5711 4.14127L19.8204 4.57469ZM18.8924 4.95075L19.0173 5.43489C18.7315 5.50862 18.4685 5.61889 18.2264 5.76521L17.9678 5.3373L17.7092 4.90939C18.0368 4.71135 18.3902 4.56392 18.7675 4.4666L18.8924 4.95075ZM17.9678 5.3373L18.2264 5.76521C17.9621 5.92499 17.7095 6.10352 17.4685 6.30094L17.1516 5.91418L16.8347 5.52742C17.1123 5.30002 17.4038 5.09396 17.7092 4.90939L17.9678 5.3373ZM17.1516 5.91418L17.4685 6.30094C17.1617 6.55232 16.8161 6.74283 16.4351 6.87259L16.2739 6.39929L16.1127 5.926C16.3835 5.83376 16.623 5.70086 16.8347 5.52742L17.1516 5.91418ZM16.2739 6.39929L16.4351 6.87259C16.1653 6.96451 15.9275 7.09746 15.718 7.27134L15.3986 6.88664L15.0792 6.50195C15.3851 6.24802 15.7308 6.05608 16.1127 5.926L16.2739 6.39929ZM15.3986 6.88664L15.718 7.27134C15.4679 7.47901 15.224 7.69381 14.9865 7.91575L14.6451 7.55038L14.3038 7.18502C14.5556 6.94976 14.8141 6.72207 15.0792 6.50195L15.3986 6.88664ZM14.6451 7.55038L14.9865 7.91575C14.7354 8.1503 14.4792 8.37732 14.218 8.59679L13.8964 8.21394L13.5748 7.83109C13.8225 7.62301 14.0655 7.40766 14.3038 7.18502L14.6451 7.55038ZM13.8964 8.21394L14.218 8.59679C13.9179 8.84881 13.5761 9.04619 13.1967 9.19066L13.0188 8.72338L12.8409 8.2561C13.1225 8.14887 13.3658 8.00663 13.5748 7.83109L13.8964 8.21394ZM13.0188 8.72338L13.1967 9.19066C12.9442 9.28678 12.7452 9.43047 12.5887 9.62212L12.2014 9.30591L11.8141 8.98969C12.0863 8.65634 12.4322 8.41168 12.8409 8.2561L13.0188 8.72338ZM12.2014 9.30591L12.5887 9.62212C12.3546 9.90897 12.0965 10.1702 11.8146 10.4054L11.4943 10.0215L11.1739 9.63765C11.4063 9.44368 11.6197 9.22785 11.8141 8.98969L12.2014 9.30591ZM11.4943 10.0215L11.8146 10.4054C11.5508 10.6256 11.2801 10.8398 11.0025 11.0482L10.7023 10.6483L10.4021 10.2485C10.6662 10.0503 10.9234 9.84668 11.1739 9.63765L11.4943 10.0215ZM10.7023 10.6483L11.0025 11.0482C10.8125 11.1908 10.6682 11.382 10.571 11.6379L10.1036 11.4605L9.63611 11.2831C9.79564 10.8627 10.0504 10.5125 10.4021 10.2485L10.7023 10.6483ZM10.1036 11.4605L10.571 11.6379C10.4083 12.0668 10.1393 12.417 9.76528 12.6707L9.48463 12.2569L9.20398 11.8431C9.39854 11.7112 9.54222 11.5305 9.63611 11.2831L10.1036 11.4605ZM9.48463 12.2569L9.76528 12.6707C9.51847 12.8381 9.30413 13.0317 9.12049 13.2516L8.7367 12.9311L8.35291 12.6107C8.5979 12.3173 8.88218 12.0614 9.20398 11.8431L9.48463 12.2569ZM8.7367 12.9311L9.12049 13.2516C8.94135 13.4661 8.79649 13.7099 8.68652 13.9856L8.22209 13.8004L7.75766 13.6152C7.9052 13.2452 8.10342 12.9094 8.35291 12.6107L8.7367 12.9311ZM8.22209 13.8004L8.68652 13.9856C8.50914 14.4304 8.18821 14.7643 7.75509 14.9828L7.52989 14.5364L7.30469 14.09C7.53699 13.9728 7.67753 13.8161 7.75766 13.6152L8.22209 13.8004ZM7.52989 14.5364L7.75509 14.9828C7.5516 15.0855 7.44565 15.2248 7.40046 15.4272L6.91248 15.3183L6.42449 15.2094C6.5371 14.7049 6.84276 14.323 7.30469 14.09L7.52989 14.5364ZM6.91248 15.3183L7.40046 15.4272C7.29897 15.8819 7.07228 16.2682 6.72114 16.5666L6.39739 16.1855L6.07365 15.8045C6.25148 15.6534 6.36819 15.4616 6.42449 15.2094L6.91248 15.3183ZM6.39739 16.1855L6.72114 16.5666C6.49397 16.7596 6.3063 16.9754 6.15569 17.2144L5.73267 16.9479L5.30966 16.6813C5.51635 16.3533 5.77184 16.0609 6.07365 15.8045L6.39739 16.1855ZM5.73267 16.9479L6.15569 17.2144C6.01451 17.4385 5.91799 17.6927 5.86922 17.9829L5.37613 17.9001L4.88305 17.8172C4.95236 17.4048 5.09354 17.0243 5.30966 16.6813L5.73267 16.9479ZM5.37613 17.9001L5.86922 17.9829C5.79981 18.3959 5.65791 18.7759 5.43979 19.1167L5.01866 18.8471L4.59754 18.5776C4.73796 18.3582 4.83437 18.1068 4.88305 17.8172L5.37613 17.9001ZM5.01866 18.8471L5.43979 19.1167C5.26677 19.387 5.10341 19.6629 4.9497 19.9444L4.51085 19.7048L4.07201 19.4652C4.23684 19.1633 4.41203 18.8674 4.59754 18.5776L5.01866 18.8471ZM4.51085 19.7048L4.9497 19.9444C4.78384 20.2482 4.60492 20.5461 4.41299 20.8382L3.99512 20.5637L3.57725 20.2891C3.75442 20.0195 3.91931 19.7448 4.07201 19.4652L4.51085 19.7048ZM3.99512 20.5637L4.41299 20.8382C4.22907 21.1181 4.04528 21.3999 3.86161 21.6836L3.4419 21.4119L3.0222 21.1401C3.20707 20.8546 3.39209 20.5709 3.57725 20.2891L3.99512 20.5637ZM3.4419 21.4119L3.86161 21.6836C3.7095 21.9185 3.60351 22.1711 3.5425 22.4438L3.05456 22.3346L2.56663 22.2254C2.65353 21.837 2.80577 21.4744 3.0222 21.1401L3.4419 21.4119ZM3.05456 22.3346L3.5425 22.4438C3.46494 22.7904 3.37099 23.1301 3.26059 23.463L2.78601 23.3056L2.31144 23.1482C2.41117 22.8475 2.49625 22.5399 2.56663 22.2254L3.05456 22.3346ZM2.78601 23.3056L3.26059 23.463C3.17026 23.7354 3.11723 24.0213 3.10248 24.3224L2.60308 24.2979L2.10368 24.2735C2.1227 23.885 2.19163 23.5094 2.31144 23.1482L2.78601 23.3056ZM2.60308 24.2979L3.10248 24.3224C3.08248 24.7307 2.98707 25.1189 2.81478 25.4826L2.36292 25.2686L1.91106 25.0545C2.02522 24.8135 2.0899 24.5547 2.10368 24.2735L2.60308 24.2979ZM2.36292 25.2686L2.81478 25.4826C2.68252 25.7618 2.573 26.0482 2.48605 26.3419L2.00661 26.2L1.52718 26.0581C1.62886 25.7145 1.75687 25.38 1.91106 25.0545L2.36292 25.2686ZM2.00661 26.2L2.48605 26.3419C2.3797 26.7012 2.2279 27.0476 2.03227 27.3807L1.60112 27.1275L1.16997 26.8743C1.32638 26.608 1.4449 26.336 1.52718 26.0581L2.00661 26.2ZM1.60112 27.1275L2.03227 27.3807C1.88528 27.631 1.78957 27.8899 1.74195 28.1594L1.24958 28.0724L0.757202 27.9854C0.826286 27.5945 0.964935 27.2234 1.16997 26.8743L1.60112 27.1275ZM1.24958 28.0724L1.74195 28.1594C1.6905 28.4506 1.67323 28.7481 1.6907 29.0527L1.19153 29.0813L0.692345 29.11C0.670532 28.7298 0.691963 28.3547 0.757202 27.9854L1.24958 28.0724ZM1.19153 29.0813L1.6907 29.0527C1.71309 29.4428 1.67964 29.8255 1.58932 30.1991L1.10332 30.0816L0.617325 29.9641C0.683899 29.6887 0.709251 29.4046 0.692345 29.11L1.19153 29.0813ZM1.10332 30.0816L1.58932 30.1991C1.5163 30.5011 1.46463 30.8061 1.43426 31.1143L0.936668 31.0653L0.439079 31.0163C0.474007 30.6618 0.53344 30.311 0.617325 29.9641L1.10332 30.0816ZM0.936668 31.0653L1.43426 31.1143C1.397 31.4924 1.30726 31.8637 1.16676 32.2273L0.700371 32.0471L0.233994 31.8668C0.343254 31.5841 0.411034 31.3009 0.439079 31.0163L0.936668 31.0653ZM0.700371 32.0471L1.16676 32.2273C1.08506 32.4387 1.07825 32.6531 1.15556 32.8908L0.680061 33.0454L0.204559 33.2C0.0591888 32.7529 0.0659332 32.3017 0.233994 31.8668L0.700371 32.0471ZM0.680061 33.0454L1.15556 32.8908C1.28648 33.2935 1.33549 33.6994 1.29487 34.1042L0.797371 34.0543L0.299866 34.0044C0.3255 33.7489 0.29631 33.4822 0.204559 33.2L0.680061 33.0454ZM0.797371 34.0543L1.29487 34.1042C1.26393 34.4125 1.25332 34.7222 1.26305 35.0333L0.76329 35.0489L0.263535 35.0645C0.252441 34.7098 0.264542 34.3564 0.299866 34.0044L0.797371 34.0543ZM0.76329 35.0489L1.26305 35.0333C1.27544 35.4296 1.21373 35.8234 1.0824 36.212L0.608711 36.052L0.135017 35.8919C0.230614 35.609 0.271957 35.3341 0.263535 35.0645L0.76329 35.0489ZM0.608711 36.052L1.0824 36.212C0.995239 36.47 0.978806 36.7157 1.02567 36.9576L0.53479 37.0527L0.0439148 37.1478C-0.03759 36.727 -0.00474548 36.3056 0.135017 35.8919L0.608711 36.052ZM0.53479 37.0527L1.02567 36.9576C1.09576 37.3195 1.13158 37.6838 1.13297 38.0503L0.632973 38.0522L0.13298 38.0541C0.131828 37.7507 0.102196 37.4487 0.0439148 37.1478L0.53479 37.0527ZM0.632973 38.0522L1.13297 38.0503C1.13431 38.4026 1.11741 38.757 1.08238 39.1136L0.584778 39.0647L0.0871735 39.0158C0.11895 38.6924 0.134186 38.3718 0.13298 38.0541L0.632973 38.0522ZM0.584778 39.0647L1.08238 39.1136C1.06061 39.3353 1.10984 39.5518 1.25066 39.7772L0.826591 40.0421L0.402519 40.307C0.154129 39.9093 0.0421524 39.4742 0.0871735 39.0158L0.584778 39.0647ZM0.826591 40.0421L1.25066 39.7772C1.47458 40.1357 1.62797 40.5122 1.70268 40.9052L1.21148 40.9986L0.720276 41.092C0.671028 40.8329 0.567818 40.5717 0.402519 40.307L0.826591 40.0421ZM1.21148 40.9986L1.70268 40.9052C1.78073 41.3158 1.75405 41.7363 1.63544 42.1596L1.15398 42.0247L0.672531 41.8898C0.754539 41.5971 0.76619 41.3336 0.720276 41.092L1.21148 40.9986ZM1.15398 42.0247L1.63544 42.1596C1.56235 42.4204 1.57711 42.6419 1.66045 42.8446L1.198 43.0347L0.735542 43.2248C0.559578 42.7968 0.545006 42.3449 0.672531 41.8898L1.15398 42.0247ZM1.198 43.0347L1.66045 42.8446C1.80749 43.2023 1.90307 43.5727 1.94647 43.9545L1.44968 44.011L0.952873 44.0674C0.920013 43.7784 0.847809 43.4979 0.735542 43.2248L1.198 43.0347ZM1.44968 44.011L1.94647 43.9545C1.98083 44.2567 2.04475 44.5513 2.13822 44.8389L1.66272 44.9935L1.18723 45.1481C1.0729 44.7964 0.994781 44.4361 0.952873 44.0674L1.44968 44.011ZM1.66272 44.9935L2.13822 44.8389C2.22633 45.1098 2.3558 45.3694 2.52904 45.6182L2.11869 45.9039L1.70835 46.1896C1.48142 45.8636 1.30692 45.5162 1.18723 45.1481L1.66272 44.9935ZM2.11869 45.9039L2.52904 45.6182C2.7392 45.9201 2.92924 46.2271 3.09884 46.5393L2.6595 46.778L2.22015 47.0167C2.06885 46.7382 1.89835 46.4625 1.70835 46.1896L2.11869 45.9039ZM2.6595 46.778L3.09884 46.5393C3.28708 46.8857 3.41142 47.256 3.4715 47.6475L2.97729 47.7234L2.48308 47.7992C2.44035 47.5208 2.35283 47.2608 2.22015 47.0167L2.6595 46.778ZM2.97729 47.7234L3.4715 47.6475C3.52305 47.9833 3.57405 48.3215 3.62453 48.6619L3.12994 48.7352L2.63535 48.8085C2.58511 48.4698 2.53436 48.1334 2.48308 47.7992L2.97729 47.7234ZM3.12994 48.7352L3.62453 48.6619C3.65654 48.8777 3.75597 49.0657 3.94782 49.2369L3.61491 49.6099L3.28201 49.983C2.92793 49.667 2.70405 49.2718 2.63535 48.8085L3.12994 48.7352ZM3.61491 49.6099L3.94782 49.2369C4.3084 49.5586 4.52649 49.9661 4.5803 50.4429L4.08345 50.4989L3.58661 50.555C3.56161 50.3336 3.46736 50.1484 3.28201 49.983L3.61491 49.6099ZM4.08345 50.4989L4.5803 50.4429C4.61177 50.7217 4.69673 50.9665 4.83241 51.1842L4.40806 51.4486L3.9837 51.7131C3.76537 51.3627 3.63393 50.9743 3.58661 50.555L4.08345 50.4989ZM4.40806 51.4486L4.83241 51.1842C5.02875 51.4993 5.18939 51.8334 5.31429 52.186L4.84298 52.353L4.37167 52.5199C4.27068 52.2348 4.14137 51.9661 3.9837 51.7131L4.40806 51.4486ZM4.84298 52.353L5.31429 52.186C5.4193 52.4825 5.54417 52.7681 5.6889 53.0432L5.2464 53.276L4.8039 53.5088C4.63662 53.1909 4.49255 52.8612 4.37167 52.5199L4.84298 52.353ZM5.2464 53.276L5.6889 53.0432C5.84292 53.336 6.00083 53.6271 6.16264 53.9165L5.72621 54.1605L5.28978 54.4045C5.12384 54.1077 4.96188 53.8091 4.8039 53.5088L5.2464 53.276ZM5.72621 54.1605L6.16264 53.9165C6.28477 54.135 6.46028 54.3243 6.70052 54.4838L6.4239 54.9003L6.14728 55.3168C5.785 55.0762 5.49538 54.7723 5.28978 54.4045L5.72621 54.1605ZM6.4239 54.9003L6.70052 54.4838C7.08498 54.7391 7.36567 55.0832 7.5246 55.5099L7.05605 55.6844L6.58749 55.8589C6.50607 55.6403 6.36533 55.4616 6.14728 55.3168L6.4239 54.9003ZM7.05605 55.6844L7.5246 55.5099C7.6345 55.805 7.76775 56.0835 7.9242 56.3461L7.49467 56.602L7.06514 56.858C6.87711 56.5424 6.71795 56.2092 6.58749 55.8589L7.05605 55.6844ZM7.49467 56.602L7.9242 56.3461C8.08125 56.6096 8.25987 56.8564 8.4602 57.0867L8.08296 57.4149L7.70572 57.743C7.46614 57.4676 7.25256 57.1725 7.06514 56.858L7.49467 56.602ZM8.08296 57.4149L8.4602 57.0867C8.65598 57.3118 8.87686 57.5159 9.12367 57.6993L8.82552 58.1007L8.52737 58.502C8.22401 58.2767 7.94985 58.0237 7.70572 57.743L8.08296 57.4149ZM8.82552 58.1007L9.12367 57.6993C9.46365 57.9518 9.72879 58.2723 9.91582 58.6546L9.46669 58.8743L9.01757 59.094C8.89986 58.8535 8.73756 58.6582 8.52737 58.502L8.82552 58.1007ZM9.46669 58.8743L9.91582 58.6546C10.0446 58.9179 10.2075 59.1459 10.4042 59.3417L10.0515 59.6961L9.69876 60.0505C9.42051 59.7735 9.1935 59.4537 9.01757 59.094L9.46669 58.8743ZM10.0515 59.6961L10.4042 59.3417C10.5998 59.5364 10.8309 59.699 11.1014 59.8286L10.8854 60.2795L10.6695 60.7305C10.3031 60.555 9.9782 60.3286 9.69876 60.0505L10.0515 59.6961ZM10.8854 60.2795L11.1014 59.8286C11.5289 60.0333 11.8458 60.3624 12.0412 60.7965L11.5853 61.0018L11.1294 61.2071C11.0286 60.9832 10.8789 60.8308 10.6695 60.7305L10.8854 60.2795ZM11.5853 61.0018L12.0412 60.7965C12.1678 61.0775 12.3273 61.3157 12.5181 61.5156L12.1563 61.8608L11.7946 62.206C11.5202 61.9185 11.2991 61.584 11.1294 61.2071L11.5853 61.0018ZM12.1563 61.8608L12.5181 61.5156C12.7145 61.7215 12.9396 61.8941 13.1951 62.0339L12.9552 62.4725L12.7152 62.9112C12.3707 62.7228 12.0632 62.4875 11.7946 62.206L12.1563 61.8608ZM12.9552 62.4725L13.1951 62.0339C13.4836 62.1917 13.7786 62.3382 14.0802 62.4736L13.8755 62.9298L13.6707 63.3859C13.3453 63.2399 13.0268 63.0816 12.7152 62.9112L12.9552 62.4725ZM13.8755 62.9298L14.0802 62.4736C14.4811 62.6535 14.8083 62.9325 15.0564 63.3001L14.642 63.5798L14.2275 63.8595C14.0806 63.6418 13.8968 63.4874 13.6707 63.3859L13.8755 62.9298ZM14.642 63.5798L15.0564 63.3001C15.1857 63.4916 15.3541 63.6116 15.5819 63.6718L15.454 64.1552L15.3261 64.6386C14.8662 64.5169 14.4933 64.2533 14.2275 63.8595L14.642 63.5798ZM15.454 64.1552L15.5819 63.6718C15.965 63.7732 16.3219 63.9172 16.6504 64.1056L16.4017 64.5393L16.153 64.9731C15.9056 64.8312 15.6307 64.7192 15.3261 64.6386L15.454 64.1552ZM16.4017 64.5393L16.6504 64.1056C16.9535 64.2794 17.2468 64.4686 17.5303 64.6732L17.2377 65.0786L16.945 65.4841C16.6898 65.2998 16.4258 65.1295 16.153 64.9731L16.4017 64.5393ZM17.2377 65.0786L17.5303 64.6732C17.8347 64.8929 18.1131 65.1533 18.3659 65.4523L17.9842 65.7752L17.6024 66.0981C17.3987 65.8572 17.1794 65.6532 16.945 65.4841L17.2377 65.0786ZM17.9842 65.7752L18.3659 65.4523C18.5209 65.6356 18.7058 65.7432 18.9363 65.7871L18.8429 66.2783L18.7495 66.7695C18.2916 66.6824 17.9039 66.4546 17.6024 66.0981L17.9842 65.7752ZM18.8429 66.2783L18.9363 65.7871C19.4018 65.8756 19.7917 66.1158 20.093 66.4867L19.705 66.802L19.3169 67.1173C19.1573 66.9209 18.9725 66.8119 18.7495 66.7695L18.8429 66.2783ZM19.705 66.802L20.093 66.4867C20.2256 66.65 20.3806 66.724 20.6021 66.7216L20.6075 67.2215L20.6129 67.7215C20.092 67.7271 19.6453 67.5215 19.3169 67.1173L19.705 66.802ZM20.6075 67.2215L20.6021 66.7216C21.0529 66.7167 21.4734 66.8167 21.8488 67.0339L21.5984 67.4667L21.348 67.8995C21.1446 67.7818 20.9045 67.7183 20.6129 67.7215L20.6075 67.2215ZM21.5984 67.4667L21.8488 67.0339C22.1514 67.209 22.4486 67.3995 22.7403 67.6051L22.4523 68.0138L22.1642 68.4225C21.8963 68.2336 21.6242 68.0593 21.348 67.8995L21.5984 67.4667ZM22.4523 68.0138L22.7403 67.6051C22.9392 67.7452 23.1606 67.8204 23.4173 67.8303L23.398 68.3299L23.3788 68.8295C22.9342 68.8124 22.5251 68.6768 22.1642 68.4225L22.4523 68.0138ZM23.398 68.3299L23.4173 67.8303C23.8676 67.8476 24.2803 67.9916 24.6427 68.2585L24.3462 68.6611L24.0497 69.0637C23.8492 68.916 23.6298 68.8392 23.3788 68.8295L23.398 68.3299ZM24.3462 68.6611L24.6427 68.2585C24.8527 68.4131 25.0767 68.498 25.323 68.5204L25.2777 69.0184L25.2324 69.5163C24.7996 69.4769 24.4027 69.3236 24.0497 69.0637L24.3462 68.6611ZM25.2777 69.0184L25.323 68.5204C25.7334 68.5578 26.1212 68.6789 26.4821 68.8817L26.2372 69.3176L25.9922 69.7535C25.7529 69.6191 25.5011 69.5408 25.2324 69.5163L25.2777 69.0184ZM26.2372 69.3176L26.4821 68.8817C26.7303 69.0212 26.9884 69.1096 27.2586 69.1496L27.1855 69.6442L27.1124 70.1388C26.7183 70.0806 26.3442 69.9513 25.9922 69.7535L26.2372 69.3176ZM27.1855 69.6442L27.2586 69.1496C27.577 69.1967 27.8977 69.2305 28.2208 69.2512L28.1889 69.7502L28.157 70.2491C27.8065 70.2267 27.4582 70.19 27.1124 70.1388L27.1855 69.6442ZM28.1889 69.7502L28.2208 69.2512C28.5548 69.2725 28.8877 69.291 29.2193 69.3066L29.1958 69.8061L29.1723 70.3055C28.835 70.2896 28.4966 70.2709 28.157 70.2491L28.1889 69.7502ZM29.1958 69.8061L29.2193 69.3066C29.5939 69.3243 29.9614 69.3863 30.3212 69.4925L30.1796 69.972L30.038 70.4516C29.755 70.368 29.4668 70.3194 29.1723 70.3055L29.1958 69.8061ZM30.1796 69.972L30.3212 69.4925C30.646 69.5884 30.9717 69.6884 31.2983 69.7925L31.1464 70.2689L30.9946 70.7453C30.6748 70.6433 30.3559 70.5454 30.038 70.4516L30.1796 69.972ZM31.1464 70.2689L31.2983 69.7925C31.5393 69.8693 31.786 69.8835 32.0465 69.8325L32.1427 70.3231L32.2389 70.8138C31.8174 70.8964 31.4 70.8745 30.9946 70.7453L31.1464 70.2689ZM32.1427 70.3231L32.0465 69.8325C32.4821 69.747 32.9125 69.7873 33.3262 69.9511L33.1423 70.416L32.9583 70.8809C32.7212 70.7871 32.4852 70.7655 32.2389 70.8138L32.1427 70.3231ZM33.1423 70.416L33.3262 69.9511C33.5558 70.0419 33.7803 70.0568 34.0145 69.9986L34.135 70.4839L34.2554 70.9692C33.8169 71.078 33.3796 71.0476 32.9583 70.8809L33.1423 70.416ZM34.135 70.4839L34.0145 69.9986C34.3954 69.9041 34.7777 69.8641 35.1602 69.8806L35.1387 70.3801L35.1172 70.8796C34.8341 70.8675 34.5473 70.8967 34.2554 70.9692L34.135 70.4839ZM35.1387 70.3801L35.1602 69.8806C35.5146 69.8958 35.8695 69.9341 36.2247 69.9952L36.1399 70.4879L36.0552 70.9807C35.741 70.9266 35.4284 70.893 35.1172 70.8796L35.1387 70.3801ZM36.1399 70.4879L36.2247 69.9952C36.5426 70.0499 36.8603 70.0878 37.1781 70.1089L37.1449 70.6078L37.1117 71.1067C36.759 71.0832 36.4068 71.0412 36.0552 70.9807L36.1399 70.4879ZM37.1449 70.6078L37.1781 70.1089C37.4858 70.1294 37.7925 70.1243 38.0984 70.0937L38.1482 70.5913L38.198 71.0888C37.8367 71.1249 37.4745 71.1309 37.1117 71.1067L37.1449 70.6078ZM38.1482 70.5913L38.0984 70.0937C38.4524 70.0583 38.8083 70.0446 39.166 70.0525L39.155 70.5524L39.144 71.0523C38.8265 71.0453 38.5112 71.0574 38.198 71.0888L38.1482 70.5913ZM39.155 70.5524L39.166 70.0525C39.3857 70.0574 39.6062 69.9925 39.8378 69.8309L40.1238 70.241L40.4099 70.6511C40.0249 70.9196 39.5995 71.0623 39.144 71.0523L39.155 70.5524ZM40.1238 70.241L39.8378 69.8309C40.2038 69.5757 40.5982 69.4132 41.0181 69.3611L41.0796 69.8574L41.1411 70.3536C40.9032 70.383 40.6605 70.4764 40.4099 70.6511L40.1238 70.241ZM41.0796 69.8574L41.0181 69.3611C41.358 69.319 41.7 69.288 42.0443 69.268L42.0734 69.7671L42.1024 70.2663C41.7796 70.285 41.4592 70.3141 41.1411 70.3536L41.0796 69.8574ZM42.0734 69.7671L42.0443 69.268C42.365 69.2493 42.6846 69.2183 43.0031 69.1749L43.0705 69.6703L43.138 70.1658C42.794 70.2126 42.4488 70.2461 42.1024 70.2663L42.0734 69.7671ZM43.0705 69.6703L43.0031 69.1749C43.279 69.1373 43.544 69.0553 43.7999 68.9273L44.0236 69.3744L44.2473 69.8216C43.895 69.9979 43.5246 70.1131 43.138 70.1658L43.0705 69.6703ZM44.0236 69.3744L43.7999 68.9273C44.1441 68.7551 44.503 68.6326 44.8758 68.561L44.9701 69.0521L45.0643 69.5431C44.7835 69.597 44.5115 69.6895 44.2473 69.8216L44.0236 69.3744ZM44.9701 69.0521L44.8758 68.561C45.2222 68.4945 45.5755 68.4482 45.9353 68.422L45.9716 68.9207L46.0079 69.4194C45.686 69.4428 45.3715 69.4841 45.0643 69.5431L44.9701 69.0521ZM45.9716 68.9207L45.9353 68.422C46.2679 68.3978 46.6 68.3653 46.9316 68.3246L46.9925 68.8209L47.0535 69.3172C46.7056 69.3599 46.357 69.394 46.0079 69.4194L45.9716 68.9207ZM46.9925 68.8209L46.9316 68.3246C47.1412 68.2989 47.3314 68.2036 47.5119 68.0058L47.8813 68.3428L48.2506 68.6799C47.9257 69.036 47.5234 69.2594 47.0535 69.3172L46.9925 68.8209ZM47.8813 68.3428L47.5119 68.0058C47.837 67.6495 48.2397 67.4261 48.7099 67.367L48.7722 67.8631L48.8346 68.3592C48.6222 68.3859 48.4309 68.4822 48.2506 68.6799L47.8813 68.3428ZM48.7722 67.8631L48.7099 67.367C49.0211 67.3279 49.3215 67.2616 49.6116 67.1684L49.7645 67.6445L49.9175 68.1205C49.567 68.2331 49.2059 68.3125 48.8346 68.3592L48.7722 67.8631ZM49.7645 67.6445L49.6116 67.1684C49.9075 67.0734 50.1934 66.9566 50.4695 66.8182L50.6936 67.2652L50.9177 67.7121C50.5955 67.8737 50.262 68.0098 49.9175 68.1205L49.7645 67.6445ZM50.6936 67.2652L50.4695 66.8182C50.7189 66.6931 50.9493 66.5267 51.161 66.3157L51.5139 66.6698L51.8669 67.0239C51.5832 67.3067 51.2666 67.5372 50.9177 67.7121L50.6936 67.2652ZM51.5139 66.6698L51.161 66.3157C51.4681 66.0096 51.8314 65.7955 52.2454 65.6804L52.3794 66.1621L52.5134 66.6438C52.2689 66.7118 52.0553 66.8362 51.8669 67.0239L51.5139 66.6698ZM52.3794 66.1621L52.2454 65.6804C52.483 65.6143 52.6843 65.4911 52.857 65.3027L53.2255 65.6406L53.5941 65.9785C53.2971 66.3023 52.9343 66.5267 52.5134 66.6438L52.3794 66.1621ZM53.2255 65.6406L52.857 65.3027C53.1346 64.9999 53.4567 64.7614 53.822 64.5919L54.0325 65.0455L54.2429 65.499C54.002 65.6108 53.7862 65.769 53.5941 65.9785L53.2255 65.6406ZM54.0325 65.0455L53.822 64.5919C54.1596 64.4353 54.5195 64.3147 54.9005 64.2289L55.0103 64.7167L55.1202 65.2045C54.8037 65.2757 54.5117 65.3743 54.2429 65.499L54.0325 65.0455ZM55.0103 64.7167L54.9005 64.2289C55.1838 64.1651 55.4248 64.0531 55.6309 63.8959L55.934 64.2936L56.2371 64.6912C55.9093 64.9412 55.5345 65.1112 55.1202 65.2045L55.0103 64.7167ZM55.934 64.2936L55.6309 63.8959C55.8527 63.7269 56.0482 63.5193 56.2172 63.2697L56.6313 63.5499L57.0453 63.8302C56.8187 64.165 56.5494 64.4532 56.2371 64.6912L55.934 64.2936ZM56.6313 63.5499L56.2172 63.2697C56.4556 62.9175 56.7559 62.6339 57.1172 62.4266L57.366 62.8603L57.6148 63.294C57.392 63.4218 57.2025 63.5979 57.0453 63.8302L56.6313 63.5499ZM57.366 62.8603L57.1172 62.4266C57.3955 62.267 57.6647 62.0949 57.9251 61.9104L58.2142 62.3183L58.5034 62.7263C58.2168 62.9294 57.9206 63.1186 57.6148 63.294L57.366 62.8603ZM58.2142 62.3183L57.9251 61.9104C58.1714 61.7358 58.3978 61.5387 58.6046 61.3188L58.9688 61.6613L59.3331 62.0039C59.0807 62.2723 58.804 62.5132 58.5034 62.7263L58.2142 62.3183ZM58.9688 61.6613L58.6046 61.3188C58.872 61.0345 59.1821 60.7975 59.5321 60.6078L59.7703 61.0474L60.0085 61.487C59.7491 61.6276 59.5249 61.7999 59.3331 62.0039L58.9688 61.6613ZM59.7703 61.0474L59.5321 60.6078C59.7908 60.4676 60.0142 60.295 60.2052 60.09L60.5711 60.4308L60.9369 60.7716C60.6698 61.0584 60.3594 61.2969 60.0085 61.487L59.7703 61.0474ZM60.5711 60.4308L60.2052 60.09C60.4078 59.8725 60.5856 59.6313 60.7387 59.3653L61.1721 59.6147L61.6054 59.8641C61.4154 60.1944 61.1925 60.4972 60.9369 60.7716L60.5711 60.4308ZM61.1721 59.6147L60.7387 59.3653C60.9059 59.0747 61.0654 58.7802 61.2171 58.4817L61.6628 58.7082L62.1086 58.9347C61.949 59.2487 61.7813 59.5585 61.6054 59.8641L61.1721 59.6147ZM61.6628 58.7082L61.2171 58.4817C61.3959 58.1298 61.6225 57.8159 61.8968 57.5424L62.2498 57.8965L62.6028 58.2507C62.4058 58.447 62.241 58.6742 62.1086 58.9347L61.6628 58.7082ZM62.2498 57.8965L61.8968 57.5424C62.1034 57.3365 62.2821 57.1083 62.4333 56.8571L62.8616 57.115L63.29 57.3729C63.0968 57.6939 62.8675 57.9868 62.6028 58.2507L62.2498 57.8965ZM62.8616 57.115L62.4333 56.8571C62.6464 56.5031 62.9342 56.2096 63.2884 55.9768L63.563 56.3946L63.8376 56.8125C63.6011 56.9679 63.4214 57.1546 63.29 57.3729L62.8616 57.115ZM63.563 56.3946L63.2884 55.9768C63.562 55.7969 63.815 55.6003 64.0477 55.3871L64.3855 55.7557L64.7232 56.1244C64.45 56.3748 64.1546 56.6041 63.8376 56.8125L63.563 56.3946ZM64.3855 55.7557L64.0477 55.3871C64.2196 55.2296 64.3326 55.0325 64.3859 54.7777L64.8754 54.8801L65.3648 54.9824C65.2708 55.4316 65.0572 55.8184 64.7232 56.1244L64.3855 55.7557ZM64.8754 54.8801L64.3859 54.7777C64.4707 54.3724 64.6168 53.9995 64.8276 53.6638L65.2511 53.9297L65.6745 54.1956C65.5316 54.4231 65.4273 54.6837 65.3648 54.9824L64.8754 54.8801ZM65.2511 53.9297L64.8276 53.6638C65.0219 53.3544 65.2468 53.0636 65.5017 52.7912L65.8668 53.1329L66.2319 53.4745C66.0194 53.7015 65.8338 53.9419 65.6745 54.1956L65.2511 53.9297ZM65.8668 53.1329L65.5017 52.7912C65.6627 52.6192 65.7617 52.4142 65.7983 52.1599L66.2932 52.2312L66.7881 52.3025C66.7235 52.7511 66.5382 53.1471 66.2319 53.4745L65.8668 53.1329ZM66.2932 52.2312L65.7983 52.1599C65.8686 51.672 66.1153 51.2691 66.5106 50.9698L66.8124 51.3684L67.1143 51.767C66.9186 51.9152 66.8191 52.0875 66.7881 52.3025L66.2932 52.2312ZM66.8124 51.3684L66.5106 50.9698C66.7081 50.8202 66.8055 50.6499 66.8352 50.4426L67.3301 50.5137L67.8251 50.5847C67.7555 51.0695 67.5077 51.469 67.1143 51.767L66.8124 51.3684ZM67.3301 50.5137L66.8352 50.4426C66.8897 50.0628 66.9814 49.6987 67.1112 49.3514L67.5796 49.5265L68.048 49.7015C67.9445 49.9784 67.8699 50.2724 67.8251 50.5847L67.3301 50.5137ZM67.5796 49.5265L67.1112 49.3514C67.2505 48.9789 67.4582 48.6381 67.7295 48.3299L68.1049 48.6602L68.4802 48.9905C68.2844 49.213 68.142 49.4498 68.048 49.7015L67.5796 49.5265ZM68.1049 48.6602L67.7295 48.3299C67.8986 48.1377 67.9926 47.9276 68.0219 47.6892L68.5182 47.7503L69.0144 47.8114C68.9597 48.2554 68.7782 48.6518 68.4802 48.9905L68.1049 48.6602ZM68.5182 47.7503L68.0219 47.6892C68.0658 47.333 68.1251 46.9836 68.2001 46.6411L68.6885 46.7479L69.177 46.8548C69.1088 47.1663 69.0546 47.4852 69.0144 47.8114L68.5182 47.7503ZM68.6885 46.7479L68.2001 46.6411C68.2852 46.252 68.4411 45.8867 68.6644 45.5473L69.0821 45.822L69.4999 46.0968C69.3414 46.3378 69.2349 46.5898 69.177 46.8548L68.6885 46.7479ZM69.0821 45.822L68.6644 45.5473C68.7819 45.3686 68.8258 45.1711 68.7851 44.9254L69.2783 44.8436L69.7716 44.7618C69.851 45.2403 69.7641 45.6951 69.4999 46.0968L69.0821 45.822ZM69.2783 44.8436L68.7851 44.9254C68.7003 44.4145 68.8359 43.9433 69.1738 43.5503L69.5529 43.8762L69.9321 44.2022C69.7837 44.3748 69.7362 44.5485 69.7716 44.7618L69.2783 44.8436ZM69.5529 43.8762L69.1738 43.5503C69.35 43.3453 69.4269 43.1411 69.4335 42.9263L69.9333 42.9416L70.433 42.9569C70.4188 43.4226 70.2422 43.8415 69.9321 44.2022L69.5529 43.8762ZM69.9333 42.9416L69.4335 42.9263C69.4438 42.589 69.4511 42.2532 69.4554 41.9188L69.9554 41.9252L70.4553 41.9316C70.451 42.2719 70.4436 42.6137 70.433 42.9569L69.9333 42.9416ZM69.9554 41.9252L69.4554 41.9188C69.4603 41.5342 69.519 41.1576 69.6314 40.7906L70.1095 40.937L70.5875 41.0834C70.5031 41.3593 70.459 41.6415 70.4553 41.9316L69.9554 41.9252ZM70.1095 40.937L69.6314 40.7906C69.7203 40.5002 69.7797 40.2058 69.8099 39.907L70.3074 39.9572L70.8049 40.0075C70.768 40.3721 70.6955 40.7309 70.5875 41.0834L70.1095 40.937ZM70.3074 39.9572L69.8099 39.907C69.8443 39.5666 69.8876 39.2272 69.9397 38.8889L70.4339 38.965L70.928 39.0411C70.8786 39.3623 70.8375 39.6844 70.8049 40.0075L70.3074 39.9572ZM70.4339 38.965L69.9397 38.8889C69.9851 38.5939 69.9994 38.2961 69.9824 37.9951L70.4816 37.9668L70.9808 37.9386C71.0017 38.3088 70.9842 38.6765 70.928 39.0411L70.4339 38.965ZM70.4816 37.9668L69.9824 37.9951C69.9614 37.6241 69.9797 37.2553 70.0375 36.8894L70.5314 36.9675L71.0253 37.0455C70.9786 37.3408 70.9638 37.6383 70.9808 37.9386L70.4816 37.9668ZM70.5314 36.9675L70.0375 36.8894C70.0874 36.5739 70.1228 36.2564 70.1438 35.937L70.6428 35.9698L71.1417 36.0026C71.1187 36.3523 71.0799 36.6999 71.0253 37.0455L70.5314 36.9675ZM70.6428 35.9698L70.1438 35.937C70.166 35.5996 70.1912 35.2616 70.2194 34.923L70.7176 34.9644L71.2159 35.0058C71.1882 35.3387 71.1635 35.671 71.1417 36.0026L70.6428 35.9698ZM70.7176 34.9644L70.2194 34.923C70.2422 34.6488 70.2151 34.3769 70.1368 34.1045L70.6173 33.9664L71.0979 33.8282C71.2091 34.215 71.249 34.6085 71.2159 35.0058L70.7176 34.9644ZM70.6173 33.9664L70.1368 34.1045C70.0394 33.7658 69.9526 33.4278 69.8765 33.0903L70.3642 32.9802L70.8519 32.8701C70.9237 33.1883 71.0057 33.5077 71.0979 33.8282L70.6173 33.9664ZM70.3642 32.9802L69.8765 33.0903C69.7957 32.7325 69.7487 32.3716 69.7359 32.0081L70.2356 31.9905L70.7353 31.9728C70.7459 32.2734 70.7847 32.5724 70.8519 32.8701L70.3642 32.9802ZM70.2356 31.9905L69.7359 32.0081C69.7247 31.691 69.6994 31.3752 69.6599 31.0608L70.156 30.9986L70.6521 30.9363C70.6953 31.2804 70.723 31.6259 70.7353 31.9728L70.2356 31.9905ZM70.156 30.9986L69.6599 31.0608C69.6204 30.7454 69.5676 30.4319 69.5018 30.1204L69.991 30.017L70.4802 29.9136C70.5518 30.2523 70.6091 30.5933 70.6521 30.9363L70.156 30.9986ZM69.991 30.017L69.5018 30.1204C69.4335 29.7971 69.3634 29.475 69.2915 29.1539L69.7794 29.0447L70.2674 28.9354C70.3401 29.2604 70.411 29.5865 70.4802 29.9136L69.991 30.017ZM69.7794 29.0447L69.2915 29.1539C69.2044 28.7648 69.1957 28.3631 69.2599 27.9527L69.7539 28.03L70.2479 28.1073C70.2015 28.4038 70.2098 28.6784 70.2674 28.9354L69.7794 29.0447ZM69.7539 28.03L69.2599 27.9527C69.308 27.6457 69.3101 27.3529 69.2691 27.0724L69.7639 27.0001L70.2586 26.9279C70.315 27.3136 70.3105 27.7075 70.2479 28.1073L69.7539 28.03ZM69.7639 27.0001L69.2691 27.0724C69.2229 26.7559 69.1608 26.4429 69.0829 26.1333L69.5678 26.0112L70.0527 25.8892C70.1389 26.2317 70.2075 26.578 70.2586 26.9279L69.7639 27.0001ZM69.5678 26.0112L69.0829 26.1333C69.0065 25.8296 68.9094 25.5324 68.7916 25.2415L69.255 25.0538L69.7185 24.8662C69.8536 25.1997 69.965 25.5407 70.0527 25.8892L69.5678 26.0112ZM69.255 25.0538L68.7916 25.2415C68.6581 24.9119 68.5437 24.5762 68.4484 24.2343L68.9301 24.1001L69.4117 23.9658C69.4969 24.2713 69.5991 24.5714 69.7185 24.8662L69.255 25.0538ZM68.9301 24.1001L68.4484 24.2343C68.3649 23.9345 68.2596 23.6424 68.1325 23.3579L68.589 23.1539L69.0455 22.95C69.1928 23.2796 69.3149 23.6183 69.4117 23.9658L68.9301 24.1001ZM68.589 23.1539L68.1325 23.3579C67.9986 23.0582 67.8576 22.7623 67.7096 22.4702L68.1556 22.2441L68.6015 22.0181C68.757 22.3248 68.905 22.6355 69.0455 22.95L68.589 23.1539ZM68.1556 22.2441L67.7096 22.4702C67.556 22.1672 67.4063 21.8628 67.2605 21.557L67.7118 21.3418L68.1632 21.1266C68.3055 21.4251 68.4516 21.7222 68.6015 22.0181L68.1556 22.2441ZM67.7118 21.3418L67.2605 21.557C67.133 21.2896 66.975 21.0366 66.7856 20.7978L67.1774 20.4871L67.5692 20.1765C67.8043 20.4731 68.0026 20.7899 68.1632 21.1266L67.7118 21.3418ZM67.1774 20.4871L66.7856 20.7978C66.5375 20.4849 66.3502 20.1394 66.2256 19.7634L66.7002 19.6061L67.1749 19.4489C67.2621 19.7121 67.3928 19.954 67.5692 20.1765L67.1774 20.4871ZM66.7002 19.6061L66.2256 19.7634C66.1214 19.4489 66.0119 19.1355 65.8971 18.8233L66.3664 18.6507L66.8357 18.4782C66.9542 18.8005 67.0673 19.1241 67.1749 19.4489L66.7002 19.6061ZM66.3664 18.6507L65.8971 18.8233C65.7996 18.5582 65.6621 18.3173 65.4833 18.0987L65.8704 17.7822L66.2576 17.4658C66.5067 17.7705 66.6998 18.1087 66.8357 18.4782L66.3664 18.6507ZM65.8704 17.7822L65.4833 18.0987C65.2699 17.8376 65.0565 17.5778 64.8433 17.3194L65.2289 17.0012L65.6145 16.6829C65.8288 16.9425 66.0431 17.2034 66.2576 17.4658L65.8704 17.7822ZM65.2289 17.0012L64.8433 17.3194C64.6062 17.0322 64.4033 16.7226 64.2348 16.3912L64.6806 16.1647L65.1263 15.9381C65.2614 16.204 65.424 16.4521 65.6145 16.6829L65.2289 17.0012ZM64.6806 16.1647L64.2348 16.3912C64.115 16.1553 63.9504 15.9502 63.7367 15.7737L64.055 15.3881L64.3734 15.0026C64.6901 15.2641 64.9426 15.5766 65.1263 15.9381L64.6806 16.1647ZM64.055 15.3881L63.7367 15.7737C63.3657 15.4674 63.1509 15.0532 63.0797 14.5687L63.5744 14.496L64.0691 14.4233C64.1083 14.6903 64.2139 14.8708 64.3734 15.0026L64.055 15.3881ZM63.5744 14.496L63.0797 14.5687C63.044 14.3259 62.942 14.1778 62.7759 14.0735L63.0417 13.6501L63.3076 13.2266C63.7412 13.4989 63.9943 13.9148 64.0691 14.4233L63.5744 14.496ZM63.0417 13.6501L62.7759 14.0735C62.4532 13.871 62.1556 13.648 61.8837 13.4041L62.2176 13.0319L62.5516 12.6598C62.7787 12.8636 63.0304 13.0526 63.3076 13.2266L63.0417 13.6501ZM62.2176 13.0319L61.8837 13.4041C61.5649 13.118 61.3369 12.7589 61.1958 12.3404L61.6696 12.1806L62.1433 12.0209C62.234 12.2898 62.3714 12.4982 62.5516 12.6598L62.2176 13.0319ZM61.6696 12.1806L61.1958 12.3404C61.104 12.0685 60.9663 11.8543 60.7864 11.6857L61.1282 11.3208L61.4701 10.956C61.7801 11.2464 62.0032 11.6054 62.1433 12.0209L61.6696 12.1806ZM61.1282 11.3208L60.7864 11.6857C60.5805 11.4928 60.3417 11.33 60.0672 11.1982L60.2836 10.7474L60.5 10.2967C60.8617 10.4703 61.1861 10.6898 61.4701 10.956L61.1282 11.3208ZM60.2836 10.7474L60.0672 11.1982C59.6982 11.0211 59.3744 10.7901 59.1006 10.5038L59.462 10.1582L59.8233 9.81263C60.0088 10.0066 60.2327 10.1684 60.5 10.2967L60.2836 10.7474ZM59.462 10.1582L59.1006 10.5038C58.8455 10.2371 58.6181 9.94068 58.4179 9.61575L58.8436 9.35347L59.2692 9.09119C59.4343 9.35905 59.6191 9.59914 59.8233 9.81263L59.462 10.1582ZM58.8436 9.35347L58.4179 9.61575C58.251 9.34494 58.0643 9.0963 57.858 8.86921L58.228 8.53296L58.5981 8.19671C58.8472 8.47084 59.0708 8.76921 59.2692 9.09119L58.8436 9.35347ZM58.228 8.53296L57.858 8.86921C57.6627 8.65433 57.4417 8.47243 57.1936 8.32251L57.4523 7.8946L57.7109 7.4667C58.0418 7.6667 58.3379 7.91037 58.5981 8.19671L58.228 8.53296ZM57.4523 7.8946L57.1936 8.32251C56.9237 8.15934 56.6416 8.01395 56.3472 7.88638L56.546 7.42759L56.7448 6.96881C57.0798 7.114 57.402 7.27995 57.7109 7.4667L57.4523 7.8946ZM56.546 7.42759L56.3472 7.88638C56.0332 7.75032 55.7206 7.6158 55.4095 7.48282L55.6061 7.02307L55.8026 6.56331C56.1152 6.69694 56.4293 6.8321 56.7448 6.96881L56.546 7.42759ZM55.6061 7.02307L55.4095 7.48282C54.9939 7.30515 54.6651 7.00747 54.4243 6.61266L54.8511 6.3523L55.278 6.09194C55.4201 6.32487 55.5946 6.47437 55.8026 6.56331L55.6061 7.02307ZM54.8511 6.3523L54.4243 6.61266C54.2643 6.35035 54.0763 6.14628 53.8623 5.99204L54.1547 5.58644L54.447 5.18083C54.7788 5.41999 55.0551 5.72649 55.278 6.09194L54.8511 6.3523ZM54.1547 5.58644L53.8623 5.99204C53.6426 5.83367 53.3957 5.7192 53.1174 5.64942L53.239 5.16443L53.3606 4.67944C53.7574 4.77894 54.121 4.94581 54.447 5.18083L54.1547 5.58644ZM53.239 5.16443L53.1174 5.64942C52.7666 5.56147 52.4248 5.46058 52.0923 5.34666L52.2543 4.87364L52.4164 4.40063C52.7215 4.50514 53.0362 4.59811 53.3606 4.67944L53.239 5.16443ZM52.2543 4.87364L52.0923 5.34666C51.6891 5.20854 51.3395 4.97288 51.0463 4.65047L51.4163 4.3141L51.7862 3.97773C51.9728 4.18294 52.1819 4.32031 52.4164 4.40063L52.2543 4.87364ZM51.4163 4.3141L51.0463 4.65047C50.8459 4.42999 50.6254 4.26326 50.3846 4.14451L50.6058 3.69608L50.8269 3.24766C51.1871 3.4253 51.507 3.67059 51.7862 3.97773L51.4163 4.3141ZM50.6058 3.69608L50.3846 4.14451C50.1528 4.03018 49.8938 3.96593 49.6008 3.95686L49.6162 3.4571L49.6317 2.95734C50.0571 2.97051 50.4578 3.06558 50.8269 3.24766L50.6058 3.69608ZM49.6162 3.4571L49.6008 3.95686C49.114 3.9418 48.686 3.75632 48.3403 3.41263L48.6929 3.05807L49.0454 2.7035C49.2125 2.86963 49.4 2.95017 49.6317 2.95734L49.6162 3.4571ZM48.6929 3.05807L48.3403 3.41263C48.1296 3.20306 47.9029 3.05594 47.6596 2.96287L47.8382 2.49587L48.0169 2.02888C48.4004 2.17558 48.7434 2.40325 49.0454 2.7035L48.6929 3.05807ZM47.8382 2.49587L47.6596 2.96287C47.3614 2.84879 47.0582 2.74946 46.75 2.66487L46.8823 2.18271L47.0147 1.70054C47.3542 1.79373 47.6883 1.90318 48.0169 2.02888L47.8382 2.49587ZM46.8823 2.18271L46.75 2.66487C46.4459 2.58139 46.1367 2.5165 45.8223 2.47022L45.8951 1.97555L45.9679 1.48088C46.3222 1.53303 46.6712 1.60625 47.0147 1.70054L46.8823 2.18271ZM45.8951 1.97555L45.8223 2.47022C45.4954 2.4221 45.1677 2.38138 44.8391 2.34806L44.8896 1.85061L44.94 1.35316C45.2835 1.388 45.6261 1.43057 45.9679 1.48088L45.8951 1.97555ZM44.8896 1.85061L44.8391 2.34806C44.4562 2.30922 44.0863 2.21772 43.731 2.07366L43.9189 1.61029L44.1067 1.14693C44.3736 1.25513 44.6509 1.32384 44.94 1.35316L44.8896 1.85061ZM43.9189 1.61029L43.731 2.07366C43.4171 1.94639 43.1021 1.81536 42.7859 1.68058L42.982 1.22063L43.1781 0.760686C43.4889 0.89318 43.7984 1.02193 44.1067 1.14693L43.9189 1.61029ZM42.982 1.22063L42.7859 1.68058C42.5222 1.56815 42.2514 1.50207 41.9715 1.48111L42.0088 0.982508L42.0461 0.483904C42.4369 0.51316 42.8149 0.605833 43.1781 0.760686L42.982 1.22063ZM42.0088 0.982508L41.9715 1.48111C41.6745 1.45888 41.3719 1.47037 41.0627 1.51649L40.9889 1.02197L40.9151 0.527442C41.2952 0.47074 41.6724 0.455923 42.0461 0.483904L42.0088 0.982508ZM40.9889 1.02197L41.0627 1.51649C40.6644 1.57592 40.2715 1.56928 39.8867 1.49381L39.9829 1.00316L40.0791 0.512503C40.3465 0.564944 40.6243 0.570841 40.9151 0.527442L40.9889 1.02197ZM39.9829 1.00316L39.8867 1.49381C39.5524 1.42825 39.2183 1.35406 38.8844 1.27126L39.0048 0.785963L39.1252 0.300667C39.4432 0.379545 39.7612 0.450152 40.0791 0.512503L39.9829 1.00316ZM39.0048 0.785963L38.8844 1.27126C38.6278 1.2076 38.3668 1.19883 38.0969 1.24658L38.0098 0.754219L37.9227 0.261863C38.3275 0.190252 38.7299 0.202637 39.1252 0.300667L39.0048 0.785963ZM38.0098 0.754219L38.0969 1.24658C37.7024 1.31636 37.3092 1.31643 36.9204 1.24517L37.0106 0.753361L37.1007 0.261553C37.3694 0.310798 37.6424 0.311435 37.9227 0.261863L38.0098 0.754219ZM37.0106 0.753361L36.9204 1.24517C36.6022 1.18685 36.2962 1.14139 36.0022 1.10858L36.0577 0.611668L36.1131 0.114753C36.4322 0.150362 36.7614 0.199367 37.1007 0.261553L37.0106 0.753361ZM36.0577 0.611668L36.0022 1.10858C35.8477 1.09133 35.7258 1.07641 35.6404 1.0639C35.5995 1.0579 35.5572 1.05108 35.521 1.04327C35.5059 1.04 35.4734 1.03275 35.4376 1.02002C35.4231 1.01484 35.3801 0.999293 35.3319 0.968737C35.3081 0.953652 35.2611 0.92135 35.2154 0.866813C35.1691 0.81169 35.0979 0.701294 35.0979 0.544336H35.5979H36.0979C36.0979 0.388045 36.027 0.27834 35.9813 0.22393C35.9362 0.170107 35.89 0.13854 35.8675 0.124215C35.8217 0.0951774 35.7823 0.0812404 35.7725 0.0777678C35.7571 0.0722776 35.7455 0.069146 35.741 0.0679741C35.7357 0.0665812 35.7325 0.0658884 35.7323 0.0658325C35.732 0.065769 35.736 0.0666303 35.7462 0.0683568C35.7559 0.0699973 35.7687 0.0720299 35.7853 0.0744536C35.8531 0.0843905 35.9612 0.0977917 36.1131 0.114753L36.0577 0.611668ZM35.5979 0.544336H35.0979C35.0979 0.733173 35.1994 0.86605 35.2871 0.935491C35.3617 0.994545 35.434 1.01673 35.4622 1.02458C35.5228 1.0414 35.5716 1.0419 35.5798 1.04207C35.5966 1.04241 35.6088 1.04168 35.6128 1.04142C35.6155 1.04124 35.6175 1.04108 35.6186 1.04098C35.6192 1.04092 35.6197 1.04088 35.6199 1.04085C35.6202 1.04083 35.6204 1.04081 35.6204 1.04081C35.6204 1.04081 35.62 1.04085 35.6191 1.04096C35.6182 1.04107 35.617 1.04122 35.6154 1.04143C35.6122 1.04186 35.6079 1.04248 35.6023 1.04331C35.5911 1.045 35.5765 1.04737 35.5581 1.05054C35.4829 1.06347 35.3645 1.08632 35.1994 1.12004L35.0993 0.630157L34.9993 0.140272C35.1665 0.106104 35.2974 0.0807013 35.3884 0.0650303C35.4322 0.0575024 35.476 0.0505782 35.5131 0.0465788C35.528 0.0449694 35.5619 0.0414862 35.6004 0.0422797C35.6138 0.0425551 35.6665 0.0434636 35.7297 0.0610129C35.7592 0.0692149 35.8325 0.0918413 35.9077 0.151409C35.9961 0.221364 36.0979 0.354832 36.0979 0.544336H35.5979Z" fill="#6F5745"/>
<path d="M48.0292 37.2035C49.2392 36.4144 49.2392 34.6422 48.0292 33.8531L30.6904 22.5452C29.3601 21.6776 27.5979 22.6322 27.5979 24.2204L27.5979 35.5283L27.5979 46.8362C27.5979 48.4245 29.3601 49.3791 30.6904 48.5114L48.0292 37.2035Z" fill="white"/>
<path d="M47.6436 33.5291L47.322 33.9119L47.6436 33.5291ZM45.1832 31.8099L45.5036 31.4261L45.1832 31.8099ZM43.4129 30.8632L43.6818 30.4416L43.4129 30.8632ZM41.8274 29.6331L41.5897 30.073L41.8274 29.6331ZM40.8724 29.2668L40.9931 28.7816L40.8724 29.2668ZM39.3232 27.981L39.5289 27.5252L39.3232 27.981ZM36.7035 26.5061L37.0155 26.1153L36.7035 26.5061ZM35.918 25.8799L36.2293 25.4887L35.918 25.8799ZM33.3877 24.2678L33.8223 24.0205L33.3877 24.2678ZM32.6152 23.6217L32.4636 24.0982L32.6152 23.6217ZM31.7454 23.1249L32.0807 22.754L31.7454 23.1249ZM27.6533 24.7195L28.123 24.5483L27.6533 24.7195ZM27.5562 26.7195L27.0563 26.7083L27.5562 26.7195ZM27.7111 27.7195L28.1856 27.5619L27.7111 27.7195ZM27.6567 28.7195L28.1142 28.9213L27.6567 28.7195ZM27.5081 29.7195L27.0132 29.7907L27.5081 29.7195ZM27.6894 33.7195L27.2248 33.9044L27.6894 33.7195ZM27.623 34.7195L27.1813 34.4852L27.623 34.7195ZM27.323 38.7195L27.823 38.7143L27.323 38.7195ZM27.5426 39.7195L27.083 39.9165L27.5426 39.7195ZM27.6742 40.7195L27.1809 40.638L27.6742 40.7195ZM27.5838 41.7195L28.0837 41.7274L27.5838 41.7195ZM27.6159 42.7195L28.1143 42.6797L27.6159 42.7195ZM27.7669 44.7195L27.2694 44.7688L27.7669 44.7195ZM27.6209 45.7195L28.0865 45.9017L27.6209 45.7195ZM27.5151 46.7213L27.0229 46.8093L27.5151 46.7213ZM28.3664 48.4557L28.5251 47.9815L28.3664 48.4557ZM30.3041 48.6599L30.1252 48.193L30.3041 48.6599ZM31.2279 48.2688L31.4385 48.7223L31.2279 48.2688ZM32.8947 47.1634L32.5968 46.7618L32.8947 47.1634ZM34.5622 46.059L34.3329 45.6147L34.5622 46.059ZM35.4539 45.5956L35.222 45.1526L35.4539 45.5956ZM36.3123 45.0813L36.031 44.668L36.3123 45.0813ZM37.1298 44.5041L36.8343 44.1007L37.1298 44.5041ZM39.5646 42.7456L39.4245 42.2657L39.5646 42.7456ZM40.4862 42.3283L40.2152 41.9081L40.4862 42.3283ZM41.2684 41.697L40.9157 41.3426L41.2684 41.697ZM42.025 41.0265L42.3341 41.4196L42.025 41.0265ZM42.8246 40.422L42.5307 40.0175L42.8246 40.422ZM43.6335 39.8316L43.3378 39.4284L43.6335 39.8316ZM45.3389 38.7855L45.6281 39.1934L45.3389 38.7855ZM46.1312 38.1697L45.8075 37.7887L46.1312 38.1697ZM48.7543 34.6492L48.2947 34.846L48.7543 34.6492ZM48.3222 33.965L47.9842 34.3334L48.3222 33.965ZM47.6436 33.5291L47.322 33.9119C47.1208 33.7429 46.8879 33.6193 46.6174 33.542L46.7548 33.0613L46.8922 32.5805C47.2926 32.695 47.6522 32.8833 47.9652 33.1463L47.6436 33.5291ZM46.7548 33.0613L46.6174 33.542C46.1895 33.4197 45.8246 33.1882 45.5333 32.853L45.9107 32.525L46.2881 32.1971C46.4515 32.3851 46.6493 32.5111 46.8922 32.5805L46.7548 33.0613ZM45.9107 32.525L45.5333 32.853C45.3229 32.6108 45.0993 32.3912 44.8628 32.1938L45.1832 31.8099L45.5036 31.4261C45.7824 31.6588 46.0439 31.916 46.2881 32.1971L45.9107 32.525ZM45.1832 31.8099L44.8628 32.1938C44.6498 32.016 44.4106 31.8777 44.1424 31.7787L44.3156 31.3097L44.4887 30.8406C44.862 30.9784 45.2012 31.1737 45.5036 31.4261L45.1832 31.8099ZM44.3156 31.3097L44.1424 31.7787C43.789 31.6483 43.4559 31.4837 43.144 31.2847L43.4129 30.8632L43.6818 30.4416C43.9319 30.6012 44.2006 30.7343 44.4887 30.8406L44.3156 31.3097ZM43.4129 30.8632L43.144 31.2847C42.8317 31.0855 42.5424 30.8525 42.2765 30.5865L42.63 30.2329L42.9836 29.8794C43.1994 30.0952 43.432 30.2823 43.6818 30.4416L43.4129 30.8632ZM42.63 30.2329L42.2765 30.5865C42.0692 30.3792 41.8405 30.2085 41.5897 30.073L41.8274 29.6331L42.0651 29.1932C42.4027 29.3756 42.7092 29.6049 42.9836 29.8794L42.63 30.2329ZM41.8274 29.6331L41.5897 30.073C41.3343 29.935 41.0556 29.8276 40.7517 29.752L40.8724 29.2668L40.9931 28.7816C41.374 28.8764 41.7319 29.0132 42.0651 29.1932L41.8274 29.6331ZM40.8724 29.2668L40.7517 29.752C40.2742 29.6332 39.8999 29.3464 39.6437 28.9227L40.0716 28.664L40.4995 28.4054C40.6262 28.615 40.7858 28.73 40.9931 28.7816L40.8724 29.2668ZM40.0716 28.664L39.6437 28.9227C39.4994 28.6839 39.3238 28.5297 39.1176 28.4367L39.3232 27.981L39.5289 27.5252C39.9376 27.7096 40.261 28.0108 40.4995 28.4054L40.0716 28.664ZM39.3232 27.981L39.1176 28.4367C38.7575 28.2742 38.4338 28.0545 38.1485 27.7792L38.4956 27.4194L38.8427 27.0595C39.046 27.2556 39.274 27.4102 39.5289 27.5252L39.3232 27.981ZM38.4956 27.4194L38.1485 27.7792C37.9714 27.6084 37.7579 27.4914 37.4966 27.4291L37.6126 26.9427L37.7286 26.4563C38.1561 26.5583 38.5313 26.7591 38.8427 27.0595L38.4956 27.4194ZM37.6126 26.9427L37.4966 27.4291C37.0848 27.3309 36.714 27.1543 36.3915 26.8968L36.7035 26.5061L37.0155 26.1153C37.2164 26.2758 37.4516 26.3903 37.7286 26.4563L37.6126 26.9427ZM36.7035 26.5061L36.3915 26.8968C36.13 26.688 35.8684 26.4795 35.6067 26.2712L35.918 25.8799L36.2293 25.4887C36.4915 25.6973 36.7536 25.9062 37.0155 26.1153L36.7035 26.5061ZM35.918 25.8799L35.6067 26.2712C35.3333 26.0537 35.0685 25.8235 34.8122 25.5809L35.1559 25.2178L35.4997 24.8547C35.7355 25.0779 35.9787 25.2892 36.2293 25.4887L35.918 25.8799ZM35.1559 25.2178L34.8122 25.5809C34.6553 25.4324 34.4528 25.3375 34.1768 25.31L34.2264 24.8125L34.276 24.315C34.7473 24.3619 35.1645 24.5373 35.4997 24.8547L35.1559 25.2178ZM34.2264 24.8125L34.1768 25.31C33.6421 25.2567 33.2189 24.9821 32.9532 24.5151L33.3877 24.2678L33.8223 24.0205C33.9274 24.2052 34.0633 24.2938 34.276 24.315L34.2264 24.8125ZM33.3877 24.2678L32.9532 24.5151C32.8242 24.2885 32.6629 24.1616 32.4636 24.0982L32.6152 23.6217L32.7669 23.1453C33.2267 23.2916 33.5804 23.5955 33.8223 24.0205L33.3877 24.2678ZM32.6152 23.6217L32.4636 24.0982C32.0677 23.9722 31.7147 23.7713 31.4101 23.4958L31.7454 23.1249L32.0807 22.754C32.2767 22.9312 32.5036 23.0615 32.7669 23.1453L32.6152 23.6217ZM31.7454 23.1249L31.4101 23.4958C31.2359 23.3384 31.0281 23.2393 30.7716 23.2004L30.8466 22.7061L30.9216 22.2117C31.3628 22.2786 31.7541 22.4588 32.0807 22.754L31.7454 23.1249ZM30.8466 22.7061L30.7716 23.2004C30.3318 23.1337 29.9296 22.9534 29.5698 22.6715L29.8782 22.2779L30.1865 21.8843C30.4204 22.0675 30.6638 22.1726 30.9216 22.2117L30.8466 22.7061ZM29.8782 22.2779L29.5698 22.6715C29.4803 22.6014 29.4132 22.5798 29.3654 22.5745C29.3183 22.5693 29.2526 22.5757 29.158 22.6224L28.9367 22.174L28.7155 21.7256C28.9517 21.609 29.2083 21.5511 29.4751 21.5806C29.741 21.6099 29.9793 21.7219 30.1865 21.8843L29.8782 22.2779ZM28.9367 22.174L29.158 22.6224C28.8861 22.7566 28.6658 22.9296 28.49 23.1406L28.1058 22.8206L27.7217 22.5005C27.9921 22.1759 28.3257 21.918 28.7155 21.7256L28.9367 22.174ZM28.1058 22.8206L28.49 23.1406C28.3097 23.3569 28.1804 23.5972 28.0998 23.865L27.6211 23.7208L27.1423 23.5767C27.2618 23.1796 27.4557 22.8197 27.7217 22.5005L28.1058 22.8206ZM27.6211 23.7208L28.0998 23.865C28.0316 24.0916 28.0376 24.3139 28.123 24.5483L27.6533 24.7195L27.1835 24.8907C27.0259 24.4584 27.0104 24.0149 27.1423 23.5767L27.6211 23.7208ZM27.6533 24.7195L28.123 24.5483C28.2787 24.9752 28.3012 25.4135 28.1844 25.849L27.7015 25.7195L27.2185 25.5901C27.2805 25.3589 27.2709 25.1305 27.1835 24.8907L27.6533 24.7195ZM27.7015 25.7195L28.1844 25.849C28.105 26.1451 28.0626 26.4387 28.0561 26.7307L27.5562 26.7195L27.0563 26.7083C27.0647 26.3337 27.1192 25.9606 27.2185 25.5901L27.7015 25.7195ZM27.5562 26.7195L28.0561 26.7307C28.05 27.0038 28.092 27.2801 28.1856 27.5619L27.7111 27.7195L27.2366 27.8771C27.1087 27.4923 27.0475 27.102 27.0563 26.7083L27.5562 26.7195ZM27.7111 27.7195L28.1856 27.5619C28.337 28.0177 28.3092 28.479 28.1142 28.9213L27.6567 28.7195L27.1992 28.5178C27.2982 28.2934 27.3066 28.088 27.2366 27.8771L27.7111 27.7195ZM27.6567 28.7195L28.1142 28.9213C28.0018 29.1762 27.9695 29.4153 28.003 29.6484L27.5081 29.7195L27.0132 29.7907C26.9509 29.3571 27.0176 28.9295 27.1992 28.5178L27.6567 28.7195ZM27.5081 29.7195L28.003 29.6484C28.0504 29.9779 28.1017 30.3074 28.1568 30.637L27.6637 30.7195L27.1706 30.8021C27.1141 30.465 27.0617 30.1278 27.0132 29.7907L27.5081 29.7195ZM27.6637 30.7195L28.1568 30.637C28.2238 31.037 28.2096 31.4376 28.1154 31.8349L27.6289 31.7195L27.1424 31.6042C27.2062 31.3348 27.2152 31.0688 27.1706 30.8021L27.6637 30.7195ZM27.6289 31.7195L28.1154 31.8349C28.0443 32.1346 28.0062 32.4326 28.0003 32.7294L27.5004 32.7195L27.0005 32.7096C27.0078 32.3398 27.0554 31.9711 27.1424 31.6042L27.6289 31.7195ZM27.5004 32.7195L28.0003 32.7294C27.9951 32.9912 28.0441 33.2585 28.154 33.5347L27.6894 33.7195L27.2248 33.9044C27.0695 33.5139 26.9925 33.1145 27.0005 32.7096L27.5004 32.7195ZM27.6894 33.7195L28.154 33.5347C28.344 34.0123 28.3062 34.4987 28.0646 34.9539L27.623 34.7195L27.1813 34.4852C27.2935 34.2737 27.3001 34.0935 27.2248 33.9044L27.6894 33.7195ZM27.623 34.7195L28.0646 34.9539C27.9607 35.1498 27.9592 35.3154 28.0494 35.5021L27.5992 35.7195L27.1489 35.937C26.9171 35.457 26.9315 34.9559 27.1813 34.4852L27.623 34.7195ZM27.5992 35.7195L28.0494 35.5021C28.2445 35.9059 28.334 36.3268 28.3016 36.7571L27.803 36.7195L27.3044 36.682C27.3222 36.4456 27.2759 36.1998 27.1489 35.937L27.5992 35.7195ZM27.803 36.7195L28.3016 36.7571C28.2718 37.1531 28.1685 37.5426 27.998 37.9238L27.5416 37.7195L27.0852 37.5153C27.213 37.2298 27.284 36.9526 27.3044 36.682L27.803 36.7195ZM27.5416 37.7195L27.998 37.9238C27.8754 38.1976 27.8204 38.4598 27.823 38.7143L27.323 38.7195L26.8231 38.7247C26.8188 38.3126 26.9094 37.9081 27.0852 37.5153L27.5416 37.7195ZM27.323 38.7195L27.823 38.7143C27.8257 38.9761 27.8829 39.2445 28.0021 39.5226L27.5426 39.7195L27.083 39.9165C26.9164 39.5279 26.8273 39.1296 26.8231 38.7247L27.323 38.7195ZM27.5426 39.7195L28.0021 39.5226C28.1797 39.9369 28.2393 40.3666 28.1676 40.801L27.6742 40.7195L27.1809 40.638C27.2193 40.4058 27.1911 40.1689 27.083 39.9165L27.5426 39.7195ZM27.6742 40.7195L28.1676 40.801C28.1164 41.1103 28.0886 41.419 28.0837 41.7274L27.5838 41.7195L27.0839 41.7117C27.0895 41.3534 27.1219 40.9954 27.1809 40.638L27.6742 40.7195ZM27.5838 41.7195L28.0837 41.7274C28.0788 42.0447 28.089 42.3622 28.1143 42.6797L27.6159 42.7195L27.1175 42.7594C27.0896 42.4102 27.0784 42.061 27.0839 41.7117L27.5838 41.7195ZM27.6159 42.7195L28.1143 42.6797C28.1412 43.0161 28.165 43.3525 28.1857 43.6889L27.6866 43.7195L27.1876 43.7502C27.1673 43.4199 27.1439 43.0897 27.1175 42.7594L27.6159 42.7195ZM27.6866 43.7195L28.1857 43.6889C28.2058 44.016 28.2321 44.3431 28.2645 44.6702L27.7669 44.7195L27.2694 44.7688C27.2357 44.4293 27.2084 44.0898 27.1876 43.7502L27.6866 43.7195ZM27.7669 44.7195L28.2645 44.6702C28.3058 45.0875 28.2437 45.5 28.0865 45.9017L27.6209 45.7195L27.1553 45.5374C27.2589 45.2724 27.2941 45.0183 27.2694 44.7688L27.7669 44.7195ZM27.6209 45.7195L28.0865 45.9017C27.9879 46.1539 27.9646 46.3945 28.0073 46.6333L27.5151 46.7213L27.0229 46.8093C26.9459 46.3791 26.9932 45.9518 27.1553 45.5374L27.6209 45.7195ZM27.5151 46.7213L28.0073 46.6333C28.0655 46.9589 28.1346 47.2945 28.2147 47.6401L27.7276 47.753L27.2405 47.8659C27.1568 47.5049 27.0843 47.1527 27.0229 46.8093L27.5151 46.7213ZM27.7276 47.753L28.2147 47.6401C28.2573 47.824 28.3459 47.9215 28.5251 47.9815L28.3664 48.4557L28.2077 48.9298C27.6989 48.7595 27.3616 48.3885 27.2405 47.8659L27.7276 47.753ZM28.3664 48.4557L28.5251 47.9815C28.8541 48.0916 29.1682 48.1792 29.4676 48.245L29.3604 48.7333L29.2532 49.2217C28.9153 49.1475 28.5668 49.05 28.2077 48.9298L28.3664 48.4557ZM29.3604 48.7333L29.4676 48.245C29.689 48.2936 29.9041 48.2777 30.1252 48.193L30.3041 48.6599L30.4829 49.1269C30.0831 49.28 29.6691 49.313 29.2532 49.2217L29.3604 48.7333ZM30.3041 48.6599L30.1252 48.193C30.4248 48.0783 30.7222 47.9524 31.0173 47.8153L31.2279 48.2688L31.4385 48.7223C31.1227 48.8689 30.8042 49.0038 30.4829 49.1269L30.3041 48.6599ZM31.2279 48.2688L31.0173 47.8153C31.2927 47.6875 31.551 47.5345 31.7926 47.3564L32.0893 47.759L32.3859 48.1615C32.09 48.3795 31.774 48.5665 31.4385 48.7223L31.2279 48.2688ZM32.0893 47.759L31.7926 47.3564C32.061 47.1587 32.329 46.9605 32.5968 46.7618L32.8947 47.1634L33.1926 47.5649C32.924 47.7642 32.6551 47.9631 32.3859 48.1615L32.0893 47.759ZM32.8947 47.1634L32.5968 46.7618C32.8684 46.5603 33.1424 46.3624 33.4188 46.1682L33.7063 46.5772L33.9938 46.9863C33.7245 47.1756 33.4574 47.3685 33.1926 47.5649L32.8947 47.1634ZM33.7063 46.5772L33.4188 46.1682C33.7103 45.9632 34.0151 45.7787 34.3329 45.6147L34.5622 46.059L34.7915 46.5034C34.5139 46.6466 34.248 46.8076 33.9938 46.9863L33.7063 46.5772ZM34.5622 46.059L34.3329 45.6147C34.6298 45.4615 34.9262 45.3075 35.222 45.1526L35.4539 45.5956L35.6857 46.0386C35.3882 46.1943 35.0901 46.3493 34.7915 46.5034L34.5622 46.059ZM35.4539 45.5956L35.222 45.1526C35.5017 45.0062 35.7714 44.8447 36.031 44.668L36.3123 45.0813L36.5936 45.4947C36.3021 45.6931 35.9994 45.8744 35.6857 46.0386L35.4539 45.5956ZM36.3123 45.0813L36.031 44.668C36.3019 44.4836 36.5697 44.2945 36.8343 44.1007L37.1298 44.5041L37.4252 44.9075C37.1512 45.1081 36.874 45.3039 36.5936 45.4947L36.3123 45.0813ZM37.1298 44.5041L36.8343 44.1007C37.0651 43.9317 37.2762 43.727 37.4673 43.4842L37.8602 43.7935L38.2531 44.1028C38.0089 44.413 37.733 44.682 37.4252 44.9075L37.1298 44.5041ZM37.8602 43.7935L37.4673 43.4842C37.7238 43.1584 38.0289 42.8944 38.3821 42.6983L38.6248 43.1354L38.8676 43.5725C38.6366 43.7008 38.4319 43.8756 38.2531 44.1028L37.8602 43.7935ZM38.6248 43.1354L38.3821 42.6983C38.7081 42.5172 39.0559 42.3732 39.4245 42.2657L39.5646 42.7456L39.7046 43.2256C39.4045 43.3132 39.1259 43.429 38.8676 43.5725L38.6248 43.1354ZM39.5646 42.7456L39.4245 42.2657C39.7146 42.181 39.9774 42.0615 40.2152 41.9081L40.4862 42.3283L40.7573 42.7484C40.4348 42.9564 40.0832 43.1152 39.7046 43.2256L39.5646 42.7456ZM40.4862 42.3283L40.2152 41.9081C40.4652 41.7468 40.6987 41.5585 40.9157 41.3426L41.2684 41.697L41.6211 42.0515C41.3554 42.3158 41.0674 42.5483 40.7573 42.7484L40.4862 42.3283ZM41.2684 41.697L40.9157 41.3426C41.1706 41.089 41.4374 40.8526 41.7159 40.6335L42.025 41.0265L42.3341 41.4196C42.0866 41.6142 41.8489 41.8248 41.6211 42.0515L41.2684 41.697ZM42.025 41.0265L41.7159 40.6335C41.984 40.4227 42.2556 40.2174 42.5307 40.0175L42.8246 40.422L43.1185 40.8265C42.8536 41.0189 42.5922 41.2166 42.3341 41.4196L42.025 41.0265ZM42.8246 40.422L42.5307 40.0175C42.8002 39.8217 43.0692 39.6254 43.3378 39.4284L43.6335 39.8316L43.9291 40.2349C43.6593 40.4327 43.3891 40.6299 43.1185 40.8265L42.8246 40.422ZM43.6335 39.8316L43.3378 39.4284C43.6282 39.2155 43.934 39.0263 44.2549 38.8608L44.484 39.3052L44.7132 39.7496C44.4385 39.8913 44.1772 40.053 43.9291 40.2349L43.6335 39.8316ZM44.484 39.3052L44.2549 38.8608C44.532 38.718 44.7968 38.5569 45.0498 38.3776L45.3389 38.7855L45.6281 39.1934C45.3368 39.3999 45.0318 39.5854 44.7132 39.7496L44.484 39.3052ZM45.3389 38.7855L45.0498 38.3776C45.3099 38.1932 45.5625 37.9969 45.8075 37.7887L46.1312 38.1697L46.455 38.5508C46.1879 38.7777 45.9123 38.9919 45.6281 39.1934L45.3389 38.7855ZM46.1312 38.1697L45.8075 37.7887C46.125 37.519 46.494 37.3333 46.9066 37.2297L47.0283 37.7146L47.1501 38.1996C46.8787 38.2677 46.6497 38.3854 46.455 38.5508L46.1312 38.1697ZM47.0283 37.7146L46.9066 37.2297C47.2159 37.152 47.5124 37.0447 47.7966 36.9077L48.0137 37.3581L48.2309 37.8085C47.8851 37.9752 47.5247 38.1056 47.1501 38.1996L47.0283 37.7146ZM48.0137 37.3581L47.7966 36.9077C48.0038 36.8078 48.1543 36.6556 48.2574 36.4317L48.7116 36.6408L49.1657 36.8499C48.9683 37.2786 48.6535 37.6047 48.2309 37.8085L48.0137 37.3581ZM48.7116 36.6408L48.2574 36.4317C48.3803 36.1648 48.4419 35.8979 48.4473 35.6274L48.9472 35.6373L49.4471 35.6472C49.4388 36.062 49.3434 36.4641 49.1657 36.8499L48.7116 36.6408ZM48.9472 35.6373L48.4473 35.6274C48.4527 35.3559 48.4022 35.097 48.2947 34.846L48.7543 34.6492L49.2139 34.4523C49.3772 34.8334 49.4553 35.2333 49.4471 35.6472L48.9472 35.6373ZM48.7543 34.6492L48.2947 34.846C48.1711 34.5576 48.0611 34.404 47.9842 34.3334L48.3222 33.965L48.6603 33.5965C48.8886 33.806 49.0667 34.1086 49.2139 34.4523L48.7543 34.6492ZM48.3222 33.965L47.9842 34.3334C47.9513 34.3032 47.9254 34.2808 47.9057 34.265C47.8849 34.2481 47.8772 34.2435 47.88 34.2452C47.8818 34.2463 47.8909 34.2519 47.9062 34.2589C47.92 34.2651 47.9509 34.2781 47.9948 34.2866C48.0369 34.2947 48.1173 34.3038 48.2138 34.2753C48.3222 34.2434 48.4173 34.1734 48.4801 34.0771L48.0613 33.804L47.6424 33.5309C47.8046 33.2823 48.0688 33.2824 48.1844 33.3047C48.2882 33.3248 48.368 33.3713 48.405 33.3941C48.4907 33.447 48.5792 33.5222 48.6603 33.5965L48.3222 33.965ZM48.0613 33.804L48.4801 34.0771C48.3621 34.258 48.179 34.3065 48.0639 34.3102C47.9641 34.3134 47.8858 34.2874 47.851 34.2746C47.7751 34.2468 47.7086 34.2056 47.6659 34.1775C47.571 34.115 47.4537 34.0226 47.322 33.9119L47.6436 33.5291L47.9652 33.1463C48.0906 33.2516 48.1715 33.3131 48.2157 33.3422C48.2426 33.3599 48.2311 33.3489 48.1953 33.3358C48.1806 33.3304 48.1186 33.3079 48.0316 33.3107C47.9839 33.3122 47.9153 33.3218 47.8408 33.3573C47.762 33.3948 47.6925 33.4541 47.6424 33.5309L48.0613 33.804Z" fill="white"/>
</svg>
